<?xml version="1.0" encoding="iso-8859-1"?>
<!-- Uploaded to: SVG Repo, www.svgrepo.com, Generator: SVG Repo Mixer Tools -->
<svg height="800px" width="800px" version="1.1" id="Layer_1" xmlns="http://www.w3.org/2000/svg" xmlns:xlink="http://www.w3.org/1999/xlink" 
	 viewBox="0 0 512 512" xml:space="preserve">
<circle style="fill:#B5F1F4;" cx="256" cy="256" r="256"/>
<path style="fill:#84DBFF;" d="M318.18,504.361c43.544-10.857,84.796-33.297,118.839-67.341
	c34.164-34.164,56.646-75.583,67.46-119.298L308.391,121.585l-161.283,60.573l-31.892-23.273l-29.882,11.781l40.501,40.501
	l-6.104,10.219l133.275,133.904l-47.902,36.798L318.18,504.361z"/>
<path style="fill:#324A5E;" d="M292.202,113.778H134.465c-11.424,0-20.687,9.263-20.687,20.687v7.758l-28.444,28.444h28.444v36.202
	c0,11.424,9.263,20.687,20.687,20.687h157.737c11.424,0,20.687-9.263,20.687-20.687v-72.404
	C312.889,123.04,303.626,113.778,292.202,113.778z"/>
<path style="fill:#2B3B4E;" d="M292.202,113.778H210.03v113.778h82.172c11.424,0,20.687-9.263,20.687-20.687v-72.404
	C312.889,123.04,303.626,113.778,292.202,113.778z"/>
<path style="fill:#FC6F58;" d="M219.798,284.444h157.737c11.424,0,20.687,9.263,20.687,20.687v7.758l28.444,28.444h-28.444v36.202
	c0,11.424-9.263,20.687-20.687,20.687H219.798c-11.424,0-20.687-9.263-20.687-20.687v-72.404
	C199.111,293.707,208.374,284.444,219.798,284.444z"/>
<path style="fill:#F1543F;" d="M398.222,312.889v-7.758c0-11.424-9.263-20.687-20.687-20.687h-78.438v113.778h78.438
	c11.424,0,20.687-9.263,20.687-20.687v-36.202h28.444L398.222,312.889z"/>
</svg>